# xmcd
#
# Track frame offsets:
#	150
#	70369
#	169552
#	208990
#	226934
#	279003
#	313419
#
# Disc length: 4520 seconds
#
# Revision: 1
# Processed by: cddbd v1.5.2PL0 Copyright (c) Steve Scherf et al.
# Submitted via: audiograbber 1.83.01
#
DISCID=6111a607
DTITLE=Grateful Dead - 79-11-06 The Spectrum, Philadelphia PA
DYEAR=1900
DGENRE=
TTITLE0=Terrapin Station
TTITLE1=Playing In The Band
TTITLE2=Drums
TTITLE3=Space
TTITLE4=Black Peter
TTITLE5=Good Lovin'
TTITLE6=US Blues
EXTD=
EXTT0=
EXTT1=
EXTT2=
EXTT3=
EXTT4=
EXTT5=
EXTT6=
PLAYORDER=
